<?xml version="1.0" encoding="UTF-8"?>
<svg id="Layer_1" xmlns="http://www.w3.org/2000/svg" version="1.1" viewBox="0 0 448 512">
  <defs>
    <linearGradient id="userGradient" x1="0%" y1="0%" x2="100%" y2="100%">
      <stop offset="0%" stop-color="#6366f1" />
      <stop offset="100%" stop-color="#f59e0b" />
    </linearGradient>
  </defs>
  <path fill="url(#userGradient)" d="M224,256c70.7,0,128-57.3,128-128S294.7,0,224,0,96,57.3,96,128s57.3,128,128,128ZM313.6,288h-16.7c-22.2,10.2-46.9,16-72.9,16s-50.6-5.8-72.9-16h-16.7C60.2,288,0,348.2,0,422.4v41.6c0,26.5,21.5,48,48,48h352c26.5,0,48-21.5,48-48v-41.6c0-74.2-60.2-134.4-134.4-134.4Z"/>
</svg>